<svg width="188" height="36" viewBox="0 0 188 36" fill="none" xmlns="http://www.w3.org/2000/svg">
<path d="M32.6675 15.7257C32.858 16.0874 33.0353 16.457 33.2412 16.8097C34.6154 19.1629 35.4609 21.6339 35.0835 24.4225C35.0331 24.7949 35.1707 25.3332 35.4267 25.5842C37.1462 27.2693 36.6596 29.5865 34.6304 30.8658C32.9253 31.9408 31.1034 32.34 29.1227 32.3199C28.5982 32.3146 27.9445 32.4663 27.5664 32.7953C26.0105 34.1495 24.1693 34.8453 22.2439 35.4303C19.3113 36.3215 16.4292 36.1271 13.5774 35.126C10.1557 33.9249 9.57628 30.8624 12.2998 28.4765C12.3446 28.4372 12.3662 28.3713 12.4596 28.2174C11.0847 27.5235 9.693 26.8758 8.35342 26.1336C5.59262 24.6041 3.02543 22.8426 1.22075 20.1443C-0.615085 17.3994 -0.321203 14.2042 1.70542 12.4086C1.90216 12.2343 2.04631 11.9473 2.11232 11.6866C2.51262 10.1052 3.57403 9.27039 5.12228 9.05281C6.71189 8.82942 8.25961 8.95021 9.77111 9.62894C10.4182 9.91953 11.2057 9.8964 11.9294 10.0158C11.9552 9.91587 11.981 9.81592 12.0068 9.71598C11.494 9.52313 10.9865 9.31461 10.4677 9.14004C7.55392 8.15972 4.68277 7.06245 2.08046 5.40804C1.3526 4.9453 0.669137 4.19397 0.312943 3.41536C-0.188998 2.31816 0.283825 1.17794 1.40276 0.712482C2.39969 0.297786 3.52975 -0.00600371 4.59903 9.00644e-05C9.73186 0.0293358 14.517 1.50097 19.0493 3.83716C22.9319 5.83847 26.4763 8.30651 29.4766 11.5267C29.8275 11.9033 30.4606 12.0594 30.9927 12.216C35.7256 13.6086 40.4955 14.8844 45.1866 16.4049C46.8681 16.95 48.376 18.0485 49.9389 18.9373C50.5503 19.285 50.9917 19.8111 50.6595 20.5949C50.3425 21.343 49.6925 21.6523 48.9533 21.4958C47.6264 21.2148 46.2747 20.9426 45.0206 20.4455C41.2007 18.9317 37.4225 17.3122 33.6277 15.7347C33.423 15.6495 33.215 15.5722 32.8856 15.4471C32.7309 15.5104 32.6992 15.6181 32.6675 15.7257ZM3.11135 14.7158C2.95897 14.5287 2.8066 14.3416 2.64634 14.1448C1.84536 15.0888 1.98122 16.671 2.73935 17.8925C4.19079 20.2311 6.29308 21.8786 8.58257 23.215C13.1199 25.8637 17.9196 27.8933 23.2271 28.4085C24.2413 28.5069 25.2649 28.5078 26.2841 28.5537C26.291 28.4709 26.2978 28.3882 26.3046 28.3054C23.6836 27.3713 21.5856 25.639 19.5051 23.8739C18.885 23.3479 18.2837 22.608 17.56 22.4297C14.5278 21.6825 11.6353 20.5831 8.86087 19.1912C6.70763 18.1109 4.65542 16.8371 3.11135 14.7158ZM4.83818 4.01183C10.9026 6.83406 17.3377 8.51906 23.8756 10.1463C23.8119 9.88033 23.5772 9.83757 23.408 9.70854C20.3716 7.39363 17.1178 5.48205 13.5228 4.15485C10.65 3.09431 7.70205 2.43962 4.64969 2.2749C3.99541 2.2396 3.33343 2.34768 2.675 2.3897C2.65432 2.51047 2.63363 2.63126 2.61294 2.75203C3.31416 3.14696 4.01538 3.5419 4.83818 4.01183ZM25.8502 32.035C24.9186 31.741 23.9989 31.3993 23.053 31.1623C20.6066 30.5494 18.1623 29.9106 15.6873 29.4393C14.9031 29.29 13.9655 29.4872 13.203 29.7907C11.959 30.2858 11.7931 31.8914 12.829 32.7464C13.2353 33.0817 13.715 33.3975 14.2129 33.5373C15.3332 33.8518 16.475 34.1655 17.6273 34.2745C20.6466 34.56 23.4426 33.8444 25.8502 32.035ZM26.064 16.1475C23.8542 14.9108 21.5394 13.9432 19.0232 13.3894C19.3154 13.9737 19.6311 14.5171 20.0472 14.9675C22.451 17.5702 25.6781 19.0436 28.5224 21.04C28.8656 21.281 29.7033 20.8147 30.3118 20.6762C30.1898 20.1987 30.2225 19.5508 29.9185 19.2739C28.7312 18.1923 27.4374 17.2282 26.064 16.1475ZM9.45926 11.8523C7.87472 11.7711 6.36115 12.034 4.698 12.7225C6.98557 15.3383 9.66546 16.9407 12.8398 18.2557C12.449 15.6 11.9075 13.3115 9.45926 11.8523ZM14.6394 17.4553C14.6397 19.2503 14.662 19.2815 15.8671 19.174C16.1883 17.8298 16.5087 17.624 17.8566 17.8526C18.4797 17.9583 19.1087 18.0289 19.7548 18.1182C19.7414 17.9869 19.7501 17.9451 19.7337 17.9292C18.232 16.4715 16.7844 14.9811 16.2693 12.8422C16.23 12.679 15.9913 12.4815 15.8167 12.4475C14.9276 12.2747 14.0291 12.1505 12.9804 11.985C14.116 13.6734 14.6658 15.39 14.6394 17.4553ZM28.3711 24.3089C28.0071 24.0971 27.6515 23.7221 27.2776 23.7027C25.874 23.6301 24.4643 23.6736 23.0732 23.6736C25.1548 25.2378 27.432 26.5188 30.4373 26.8615C29.6764 25.9126 29.0736 25.1609 28.3711 24.3089ZM33.536 27.9271C32.3752 28.7971 31.2143 29.6672 30.1059 30.498C31.5753 30.4777 33.0687 30.1308 34.2983 29.0168C35.0295 28.3543 34.9574 27.8501 34.0779 27.2288C33.9293 27.4259 33.7797 27.6243 33.536 27.9271ZM32.0579 21.7467C31.7762 22.0478 31.4945 22.3489 31.109 22.7609C31.7087 23.0341 32.1573 23.2384 32.7995 23.531C32.6708 22.7754 32.5942 22.2594 32.4812 21.7515C32.4681 21.6926 32.2529 21.6788 32.0579 21.7467ZM26.6497 13.8958C27.2355 14.2177 27.8213 14.5397 28.5192 14.9232C28.1126 13.6942 27.2069 13.7084 26.1935 13.5759C26.4041 13.7175 26.4795 13.7683 26.6497 13.8958Z" fill="#EB5759"/>
<path d="M113.982 22.6963C113.982 16.9437 113.982 11.2867 113.982 5.45941C114.44 5.45941 114.835 5.45676 115.229 5.45982C118.783 5.48736 122.337 5.5016 125.891 5.54961C127.982 5.57786 130.009 5.91947 131.759 7.17541C134.754 9.32552 135.948 13.1423 134.811 16.8525C134.017 19.4425 132.221 20.9879 129.685 21.7537C129.473 21.8177 129.263 21.8862 128.921 21.9936C131.509 24.9581 134.05 27.8685 136.59 30.779C136.541 30.8583 136.492 30.9377 136.444 31.017C134.649 31.017 132.853 31.038 131.06 30.9933C130.806 30.987 130.514 30.7012 130.317 30.4768C128.138 27.9969 125.987 25.4927 123.79 23.0289C123.539 22.7476 123.067 22.5525 122.683 22.5248C121.704 22.4544 120.715 22.5387 119.734 22.4891C119.02 22.453 118.797 22.7101 118.808 23.419C118.844 25.7398 118.822 28.0615 118.82 30.3828C118.82 30.5674 118.797 30.7519 118.782 30.9774C117.19 30.9774 115.649 30.9774 113.982 30.9774C113.982 28.2353 113.982 25.5135 113.982 22.6963ZM122.602 18.1429C123.901 18.1348 125.215 18.2432 126.494 18.0789C127.392 17.9635 128.371 17.6503 129.086 17.1179C130.386 16.15 130.764 14.1047 130.182 12.5128C129.678 11.1314 128.18 10.1076 126.524 10.0868C124.18 10.0575 121.834 10.0703 119.489 10.0742C119.282 10.0746 119.074 10.1425 118.872 10.1779C118.872 12.8336 118.872 15.4262 118.872 18.143C120.085 18.143 121.248 18.143 122.602 18.1429Z" fill="#EA5658"/>
<path d="M151.495 26.6812C150.387 25.4114 149.344 24.172 148.245 22.9861C148.004 22.7266 147.565 22.546 147.205 22.523C146.226 22.4603 145.237 22.5422 144.256 22.488C143.523 22.4475 143.26 22.6602 143.278 23.4389C143.329 25.6954 143.297 27.9538 143.294 30.2115C143.294 30.4317 143.273 30.6519 143.258 30.948C141.706 30.948 140.175 30.948 138.588 30.948C138.588 22.4875 138.588 14.0451 138.588 5.50886C138.922 5.49132 139.229 5.45944 139.536 5.46152C143.185 5.48633 146.834 5.4962 150.483 5.55236C152.607 5.58507 154.643 5.99263 156.415 7.28048C158.838 9.0422 159.752 11.5146 159.705 14.4076C159.652 17.6783 158.143 20.7355 153.42 22.0177C156.003 24.9722 158.54 27.8734 161.076 30.7745C161.026 30.8547 160.976 30.9349 160.926 31.015C159.131 31.015 157.335 31.0366 155.541 30.9904C155.289 30.9839 155.005 30.6818 154.804 30.4562C153.705 29.2248 152.626 27.9746 151.495 26.6812ZM150.392 18.1419C150.645 18.1305 150.899 18.1297 151.151 18.1059C153.486 17.8853 155.032 16.2313 154.943 14.0553C154.844 11.6519 153.296 10.1348 150.868 10.0798C149.95 10.059 149.031 10.07 148.113 10.0693C146.539 10.0681 144.966 10.069 143.346 10.069C143.346 12.7997 143.346 15.4156 143.346 18.1423C145.667 18.1423 147.937 18.1423 150.392 18.1419Z" fill="#EA5658"/>
<path d="M77.2431 18.113C77.2432 13.8893 77.2432 9.76056 77.2432 5.56731C78.8775 5.56731 80.4161 5.56731 82.0215 5.56731C82.0215 14.0093 82.0215 22.4534 82.0215 31.0202C81.1471 31.0202 80.2634 31.077 79.3941 30.9898C79.0829 30.9586 78.7417 30.6305 78.524 30.3517C75.8265 26.8978 73.1505 23.4272 70.4666 19.9627C69.1058 18.2061 67.7416 16.4522 66.3752 14.7C66.2297 14.5135 66.0587 14.3471 65.7634 14.021C65.7634 19.7654 65.7634 25.3124 65.7634 30.9418C64.1211 30.9418 62.5625 30.9418 60.9327 30.9418C60.9158 30.6038 60.8868 30.2941 60.8867 29.9843C60.8842 22.191 60.8966 14.3977 60.8672 6.60448C60.8641 5.78349 61.077 5.5935 61.9128 5.5044C63.9669 5.28544 65.3127 5.95581 66.5773 7.6916C69.7157 11.9992 73.1164 16.1149 76.4067 20.3117C76.5756 20.5272 76.6972 20.7799 76.8408 21.0153C76.9749 20.9454 77.109 20.8754 77.2431 20.8054C77.2431 19.9396 77.2431 19.0739 77.2431 18.113Z" fill="#EA5658"/>
<path d="M161.919 16.7271C162.572 12.169 164.557 8.58096 168.683 6.42629C173.305 4.0121 179.796 4.68271 183.626 8.09214C186.282 10.4556 187.667 13.5639 187.903 17.0792C188.185 21.2714 187.123 25.0907 184.081 28.165C182.499 29.7633 180.578 30.7411 178.371 31.2021C174.668 31.9755 171.126 31.6767 167.787 29.7756C165.172 28.2867 163.52 26.0166 162.585 23.2148C161.893 21.1432 161.698 18.9916 161.919 16.7271ZM180.314 25.3621C180.712 24.9151 181.157 24.5017 181.5 24.0156C183.269 21.507 183.5 18.6965 182.879 15.8069C182.259 12.9168 180.645 10.7848 177.723 9.85255C174.612 8.86018 171.693 9.27526 169.281 11.5003C166.624 13.95 166.255 17.1909 166.82 20.5677C167.13 22.4201 167.955 24.0909 169.427 25.3127C172.396 27.7786 177.031 27.8121 180.314 25.3621Z" fill="#EA5658"/>
<path d="M110.098 27.0811C110.684 28.3859 111.24 29.6255 111.866 31.0225C110.137 31.0225 108.566 31.0447 106.997 30.9977C106.771 30.9909 106.463 30.6946 106.351 30.4574C105.807 29.3101 105.3 28.1442 104.816 26.9702C104.592 26.4263 104.264 26.2161 103.661 26.2199C99.724 26.2449 95.7867 26.2427 91.8497 26.2212C91.3153 26.2182 91.0655 26.4124 90.8696 26.8923C90.3776 28.097 89.8525 29.2901 89.2835 30.4599C89.1624 30.709 88.8032 30.991 88.5451 30.9996C87.0257 31.0502 85.5037 31.0245 83.8235 31.0245C84.4437 29.5931 85.0037 28.263 85.5932 26.9462C88.1625 21.2077 90.739 15.4725 93.316 9.73758C93.8622 8.52213 94.3939 7.29848 94.9972 6.11173C95.1301 5.85031 95.5325 5.58196 95.8217 5.5695C97.1528 5.5121 98.4895 5.50684 99.8199 5.57126C100.14 5.58675 100.603 5.86711 100.731 6.14851C103.301 11.8163 105.832 17.5018 108.369 23.1844C108.939 24.4601 109.502 25.7387 110.098 27.0811ZM101.584 19.5085C100.375 16.7254 99.1654 13.9422 97.8345 10.879C96.2067 14.6302 94.6918 18.1212 93.1175 21.7492C96.0587 21.7492 98.8142 21.7503 101.57 21.7476C101.848 21.7473 102.126 21.7241 102.543 21.7053C102.216 20.9597 101.927 20.3013 101.584 19.5085Z" fill="#EA5658"/>
<path d="M3.15933 14.7669C4.65801 16.837 6.71022 18.1109 8.86346 19.1911C11.6379 20.583 14.5304 21.6824 17.5626 22.4296C18.2863 22.6079 18.8876 23.3478 19.5077 23.8738C21.5881 25.6389 23.6862 27.3712 26.3072 28.3053C26.3004 28.3881 26.2935 28.4708 26.2867 28.5536C25.2675 28.5077 24.2438 28.5068 23.2297 28.4084C17.9222 27.8932 13.1225 25.8636 8.58516 23.215C6.29567 21.8785 4.19338 20.231 2.74194 17.8924C1.98381 16.6709 1.84795 15.0887 2.64893 14.1447C2.80919 14.3415 2.96156 14.5286 3.15933 14.7669Z" fill="none"/>
<path d="M26.1221 16.184C27.436 17.2282 28.7298 18.1924 29.9171 19.2739C30.2211 19.5508 30.1884 20.1988 30.3104 20.6763C29.7018 20.8148 28.8642 21.281 28.5209 21.0401C25.6766 19.0437 22.4495 17.5703 20.0457 14.9676C19.6297 14.5171 19.3139 13.9738 19.0217 13.3894C21.5379 13.9433 23.8528 14.9109 26.1221 16.184Z" fill="none"/>
</svg>
